<svg width="48" height="48" viewBox="0 0 48 48" fill="none" xmlns="http://www.w3.org/2000/svg">
<circle cx="24" cy="24" r="24" fill="#262626"/>
<path d="M19.4761 32.2416C19.0785 32.1091 18.6809 31.8442 18.4158 31.3143C18.1507 31.0494 17.8856 30.6519 17.488 30.1221C16.9579 29.3272 16.4278 28.2675 16.0301 27.2077C15.6325 26.0154 15.5 24.8232 15.5 23.6309C15.5 22.3062 15.7651 21.2465 16.2952 20.3191C16.6928 19.5243 17.3555 18.9944 18.0182 18.4645C18.6809 18.0671 19.4761 17.8022 20.2713 17.8022C20.5364 17.8022 20.8014 17.8022 21.199 17.9347C21.4641 17.9347 21.7292 18.0671 22.1268 18.1996C22.5244 18.3321 22.7895 18.4645 22.922 18.4645C23.1871 18.597 23.4522 18.597 23.5847 18.597C23.7172 18.597 23.8498 18.597 24.1148 18.4645C24.2474 18.4645 24.5125 18.3321 24.7775 18.1996C25.0426 18.0671 25.3077 17.9347 25.5727 17.9347C25.8378 17.9347 26.1029 17.8022 26.368 17.8022C26.633 17.8022 27.0306 17.6697 27.2957 17.8022C27.8259 17.8022 28.356 17.9347 28.8861 18.1996C29.6814 18.4645 30.344 19.1269 30.8742 19.7893C30.7416 19.7893 30.4766 19.9217 30.344 20.1867C29.9464 20.5841 29.5488 20.9815 29.2837 21.3789C29.0187 22.0413 28.7536 22.7036 28.7536 23.4985C28.7536 24.4258 29.0187 25.2206 29.4163 25.883C29.6814 26.4128 30.2115 26.8103 30.6091 27.0752C31.0067 27.2077 31.2718 27.3402 31.4043 27.4726C31.4043 27.7376 31.2718 28.135 31.1393 28.2675C30.8742 29.0623 30.4766 29.5922 30.079 30.2545C29.6814 30.7844 29.4163 31.1818 29.2837 31.3143C28.8861 31.7117 28.6211 32.1091 28.2235 32.2416C27.9584 32.5065 27.5608 32.639 27.0306 32.639C26.7656 32.639 26.5005 32.639 26.2354 32.5065C26.1029 32.5065 25.8378 32.3741 25.5727 32.2416C25.1751 32.1091 25.0426 31.9767 24.7775 31.9767C24.5125 31.8442 24.1148 31.8442 23.8498 31.8442C23.5847 31.8442 23.1871 31.8442 22.922 31.9767C22.6569 31.9767 22.3919 32.1091 22.1268 32.2416C21.7292 32.3741 21.5967 32.5065 21.4641 32.5065C21.199 32.639 20.934 32.639 20.6689 32.639C20.2713 32.639 19.8737 32.5065 19.4761 32.2416ZM25.0426 17.1398C24.5125 17.4048 23.9823 17.5372 23.4522 17.5372C23.3196 17.0074 23.4522 16.4775 23.7172 15.8151C23.9823 15.2852 24.1148 14.8878 24.5125 14.4904C24.9101 14.093 25.3077 13.6956 25.8378 13.4306C26.368 13.1657 26.8981 13.0332 27.4282 13.0332C27.4282 13.5631 27.2957 14.093 27.1632 14.7553C27.0306 15.2852 26.633 15.6826 26.368 16.0801C25.9703 16.6099 25.5727 16.8749 25.0426 17.1398Z" fill="white"/>
</svg>
