<svg width="85" height="12" viewBox="0 0 85 12" fill="none" xmlns="http://www.w3.org/2000/svg">
<path d="M9.24609 0.414062V11.1016H7.73438V0.414062H9.24609ZM0.632812 4.96094C0.626953 2.63477 1.81641 1.16406 3.45703 1.16406C5.0625 1.16406 6.25781 2.63477 6.25781 4.96094C6.25781 7.30469 5.0625 8.76953 3.45703 8.76953C1.81641 8.76953 0.626953 7.30469 0.632812 4.96094ZM2.07422 4.96094C2.06836 6.54883 2.625 7.41602 3.45703 7.41016C4.26562 7.41602 4.81055 6.54883 4.81641 4.96094C4.81055 3.37891 4.26562 2.51172 3.45703 2.51172C2.625 2.51172 2.06836 3.37891 2.07422 4.96094ZM15.2344 1.51562V4.29297H16.3008V0.566406H17.707V10.5859H16.3008V5.48828H15.2344V8.39453H10.9922V1.51562H15.2344ZM12.3867 7.22266H13.8398V2.69922H12.3867V7.22266ZM18.5039 11.0781V0.414062H19.9336V11.0781H18.5039ZM24.0938 0.730469C25.7168 0.724609 26.9355 1.74414 26.9414 3.16797C26.9355 4.58008 25.7168 5.58789 24.0938 5.59375C22.4473 5.58789 21.2227 4.58008 21.2227 3.16797C21.2227 1.74414 22.4473 0.724609 24.0938 0.730469ZM22.6758 3.16797C22.6641 3.92969 23.2676 4.38086 24.0938 4.38672C24.9023 4.38086 25.4941 3.92969 25.5 3.16797C25.4941 2.40039 24.9023 1.94922 24.0938 1.94922C23.2734 1.94922 22.6641 2.40039 22.6758 3.16797ZM22.8281 7.35156V6.20312H29.9883V9.09766H24.3164V9.78906H30.2812V10.9609H22.8516V8.00781H28.5V7.35156H22.8281ZM28.4883 5.75781V0.414062H29.9883V5.75781H28.4883ZM43.5 0.414062V11.0781H42.0703V5.73438H41.168V10.5859H39.75V7.5332L38.9062 8.65234C37.916 8.13086 37.2773 7.24609 36.8965 6.16211C36.5449 7.41016 35.918 8.42969 34.8984 9.03906L33.9727 7.89062C35.5957 6.97656 36.1348 5.08984 36.1406 3.05078V2.71094H34.3359V1.51562H39.2227V2.71094H37.5938V3.05078C37.5938 4.9082 38.1445 6.67773 39.75 7.50977V0.566406H41.168V4.51562H42.0703V0.414062H43.5ZM53.5547 0.425781V8.20703H52.0664V4.38672H50.3203V3.17969H52.0664V0.425781H53.5547ZM44.5078 5.80469C46.2715 5.25391 47.0684 3.86523 47.0742 2.5V2.33594H44.9297V1.14062H50.7188V2.33594H48.5977V2.51172C48.5918 3.74805 49.3535 5.06641 51.0469 5.61719L50.3086 6.80078C49.1309 6.41406 48.3164 5.64062 47.8535 4.68555C47.3789 5.74609 46.5293 6.60742 45.2695 7.02344L44.5078 5.80469ZM46.4766 10.8906V7.52734H47.9766V9.69531H53.8125V10.8906H46.4766ZM60.5273 4.1875V5.5H64.6641V6.69531H54.9375V5.5H59.0508V4.1875H60.5273ZM55.4414 3.66016C57.7969 3.36133 59.0215 2.14258 59.0273 0.941406V0.589844H60.5508V0.941406C60.5449 2.18945 61.7402 3.36133 64.1484 3.66016L63.5742 4.82031C61.7695 4.55078 60.4453 3.79492 59.7715 2.72852C59.0918 3.78906 57.7676 4.55664 55.9688 4.82031L55.4414 3.66016ZM56.0508 9.19141C56.0508 7.97852 57.4512 7.28711 59.7891 7.28125C62.1094 7.28711 63.4922 7.97852 63.5039 9.19141C63.4922 10.4043 62.1094 11.084 59.7891 11.0781C57.4512 11.084 56.0508 10.4043 56.0508 9.19141ZM57.5742 9.19141C57.5684 9.71289 58.2949 9.96484 59.7891 9.96484C61.248 9.96484 61.998 9.71289 62.0039 9.19141C61.998 8.6582 61.248 8.42383 59.7891 8.41797C58.2949 8.42383 57.5684 8.6582 57.5742 9.19141ZM73.7227 0.414062V4.58594H75.293V5.81641H73.7227V11.0781H72.2461V0.414062H73.7227ZM65.25 3.20312V2.00781H67.6641V0.578125H69.1641V2.00781H71.5195V3.20312H65.25ZM65.6836 6.34375C65.6777 4.85547 66.8379 3.79492 68.4141 3.80078C69.9668 3.79492 71.1328 4.85547 71.1328 6.34375C71.1328 7.83203 69.9668 8.88086 68.4141 8.88672C66.8379 8.88086 65.6777 7.83203 65.6836 6.34375ZM67.1133 6.34375C67.1133 7.16992 67.6582 7.66211 68.4141 7.65625C69.1582 7.66211 69.7031 7.16992 69.7031 6.34375C69.7031 5.52344 69.1582 5.01953 68.4141 5.00781C67.6582 5.01953 67.1133 5.52344 67.1133 6.34375ZM84.6445 0.414062V11.0781H83.1328V0.414062H84.6445ZM75.7148 8.05469C78.4688 6.75391 79.6816 5.06641 79.9219 2.69922H76.2891V1.52734H81.4453C81.4395 4.76172 80.3086 7.45117 76.5 9.25L75.7148 8.05469Z" fill="#E0E0E0"/>
<path d="M0 11.8047H85.7344V12.9062H0V11.8047Z" fill="#E0E0E0"/>
</svg>
