<svg width="10" height="10" viewBox="0 0 10 10" fill="none" xmlns="http://www.w3.org/2000/svg">
<path d="M0.00294294 1.27083C-0.047502 0.556179 0.557655 0 1.27261 0H2.80303C3.17003 0 3.50104 0.221129 3.64219 0.560602L4.28217 2.09973C4.43806 2.47466 4.32742 2.90772 4.01091 3.16146L3.61197 3.48127C3.43394 3.62399 3.37341 3.87009 3.47897 4.07238C4.02147 5.11205 4.8232 5.99441 5.79819 6.63333C6.00402 6.76821 6.27585 6.71455 6.42938 6.52224L6.84509 6.00152C7.0983 5.68435 7.53047 5.57348 7.90462 5.7297L9.44056 6.37101C9.77933 6.51245 10 6.84415 10 7.21191V8.75C10 9.46644 9.42445 10.0478 8.71129 9.99703C4.15107 9.6726 0.326233 5.85087 0.00294294 1.27083Z" fill="#A3A3A3"/>
</svg>
