<svg width="48" height="48" viewBox="0 0 48 48" fill="none" xmlns="http://www.w3.org/2000/svg">
<circle cx="24" cy="24" r="24" fill="#262626"/>
<path fill-rule="evenodd" clip-rule="evenodd" d="M33.6 24.2273C33.6 23.5182 33.5364 22.8364 33.4182 22.1818H24V26.05H29.3818C29.15 27.3 28.4455 28.3591 27.3864 29.0682V31.5773H30.6182C32.5091 29.8364 33.6 27.2728 33.6 24.2273Z" fill="white"/>
<path fill-rule="evenodd" clip-rule="evenodd" d="M23.9996 34C26.6996 34 28.9633 33.1045 30.6178 31.5772L27.386 29.0681C26.4905 29.6681 25.3451 30.0227 23.9996 30.0227C21.3951 30.0227 19.1905 28.2636 18.4041 25.8999H15.0632V28.4909C16.7087 31.7591 20.0905 34 23.9996 34Z" fill="white"/>
<path fill-rule="evenodd" clip-rule="evenodd" d="M18.4046 25.9C18.2046 25.3 18.0909 24.659 18.0909 24C18.0909 23.3409 18.2046 22.6999 18.4046 22.0999V19.509H15.0636C14.3864 20.859 14 22.3863 14 24C14 25.6136 14.3864 27.1409 15.0636 28.4909L18.4046 25.9Z" fill="white"/>
<path fill-rule="evenodd" clip-rule="evenodd" d="M23.9996 17.9773C25.4678 17.9773 26.786 18.4818 27.8224 19.4727L30.6905 16.6046C28.9587 14.9909 26.6951 14 23.9996 14C20.0905 14 16.7087 16.2409 15.0632 19.5091L18.4041 22.1C19.1905 19.7364 21.3951 17.9773 23.9996 17.9773Z" fill="white"/>
</svg>
