<svg width="20" height="22" viewBox="0 0 20 22" fill="none" xmlns="http://www.w3.org/2000/svg">
<path d="M9.38606 0.710648C9.74717 0.429784 10.2528 0.429784 10.6139 0.710648L19.6139 7.71065C19.8575 7.9001 20 8.19141 20 8.5V20C20 20.8284 19.3284 21.5 18.5 21.5H12.5C12.2239 21.5 12 21.2761 12 21V15.5C12 14.9477 11.5523 14.5 11 14.5H9C8.44772 14.5 8 14.9477 8 15.5V21C8 21.2761 7.77614 21.5 7.5 21.5H1.5C0.671573 21.5 0 20.8284 0 20V8.5C0 8.19141 0.142473 7.9001 0.386059 7.71065L9.38606 0.710648Z" fill="#A3A3A3"/>
</svg>
