<svg width="64" height="64" viewBox="0 0 64 64" fill="none" xmlns="http://www.w3.org/2000/svg">
<rect width="64" height="64" rx="20" fill="#262626"/>
<path fill-rule="evenodd" clip-rule="evenodd" d="M40.145 23.0734C40.1451 24.1448 39.9342 25.2057 39.5243 26.1955C39.1144 27.1854 38.5136 28.0848 37.7561 28.8425C36.9986 29.6001 36.0993 30.2011 35.1095 30.6112C34.1197 31.0213 33.0589 31.2325 31.9875 31.2326C29.8238 31.2328 27.7486 30.3735 26.2184 28.8436C24.6883 27.3138 23.8286 25.2388 23.8283 23.0751C23.8282 22.0037 24.0391 20.9428 24.449 19.9529C24.8589 18.9631 25.4598 18.0637 26.2173 17.306C27.7471 15.7759 29.8221 14.9161 31.9858 14.9159C34.1496 14.9157 36.2248 15.775 37.7549 17.3048C39.285 18.8347 40.1448 20.9097 40.145 23.0734M31.9867 33.7284C20.2383 33.7284 15.6683 41.2051 15.6683 44.6834C15.6683 48.1601 25.3967 49.0867 31.9867 49.0867C38.5767 49.0867 48.305 48.1601 48.305 44.6834C48.305 41.2051 43.735 33.7284 31.9867 33.7284Z" fill="#404040"/>
</svg>
