<svg width="28" height="28" viewBox="0 0 28 28" fill="none" xmlns="http://www.w3.org/2000/svg">
<circle cx="14" cy="14" r="14" fill="#409391"/>
<path d="M14.6666 9.33333C14.6666 10.0697 13.025 10.6667 10.9999 10.6667C8.97487 10.6667 7.33325 10.0697 7.33325 9.33333M14.6666 9.33333C14.6666 8.59695 13.025 8 10.9999 8C8.97487 8 7.33325 8.59695 7.33325 9.33333M14.6666 9.33333V10.3333M7.33325 9.33333V17.3333C7.33325 18.0697 8.97487 18.6667 10.9999 18.6667M10.9999 13.3333C10.8876 13.3333 10.7764 13.3315 10.6666 13.3279C8.79775 13.2667 7.33325 12.6955 7.33325 12M10.9999 16C8.97487 16 7.33325 15.403 7.33325 14.6667M20.6666 13.6667C20.6666 14.403 19.025 15 16.9999 15C14.9749 15 13.3333 14.403 13.3333 13.6667M20.6666 13.6667C20.6666 12.9303 19.025 12.3333 16.9999 12.3333C14.9749 12.3333 13.3333 12.9303 13.3333 13.6667M20.6666 13.6667V18.6667C20.6666 19.403 19.025 20 16.9999 20C14.9749 20 13.3333 19.403 13.3333 18.6667V13.6667M20.6666 16.1667C20.6666 16.903 19.025 17.5 16.9999 17.5C14.9749 17.5 13.3333 16.903 13.3333 16.1667" stroke="#EEECE8" stroke-linecap="round" stroke-linejoin="round"/>
</svg>
