<svg width="22" height="23" viewBox="0 0 22 23" fill="none" xmlns="http://www.w3.org/2000/svg">
<circle cx="11" cy="11.5" r="10" stroke="#D9D9D9"/>
<path fill-rule="evenodd" clip-rule="evenodd" d="M21 11.5C21 5.97715 16.5228 1.5 11 1.5C8.23858 1.5 6 3.73858 6 6.5C6 9.26142 8.23858 11.5 11 11.5C13.7614 11.5 16 13.7386 16 16.5C16 19.2614 13.7614 21.5 11 21.5C16.5228 21.5 21 17.0228 21 11.5Z" fill="#A3A3A3"/>
<path d="M11 2.5C15.9706 2.5 20 6.52944 20 11.5H22C22 5.42487 17.0751 0.5 11 0.5V2.5ZM7 6.5C7 4.29086 8.79086 2.5 11 2.5V0.5C7.68629 0.5 5 3.18629 5 6.5H7ZM11 10.5C8.79086 10.5 7 8.70914 7 6.5H5C5 9.81371 7.68629 12.5 11 12.5V10.5ZM11 12.5C13.2091 12.5 15 14.2909 15 16.5H17C17 13.1863 14.3137 10.5 11 10.5V12.5ZM15 16.5C15 18.7091 13.2091 20.5 11 20.5V22.5C14.3137 22.5 17 19.8137 17 16.5H15ZM20 11.5C20 16.4706 15.9706 20.5 11 20.5V22.5C17.0751 22.5 22 17.5751 22 11.5H20Z" fill="#A3A3A3"/>
<path d="M11 20.5C6.02944 20.5 2 16.4706 2 11.5H0C0 17.5751 4.92487 22.5 11 22.5V20.5ZM15 16.5C15 18.7091 13.2091 20.5 11 20.5V22.5C14.3137 22.5 17 19.8137 17 16.5H15ZM11 12.5C13.2091 12.5 15 14.2909 15 16.5H17C17 13.1863 14.3137 10.5 11 10.5V12.5ZM11 10.5C8.79086 10.5 7 8.70914 7 6.5H5C5 9.81371 7.68629 12.5 11 12.5V10.5ZM7 6.5C7 4.29086 8.79086 2.5 11 2.5V0.5C7.68629 0.5 5 3.18629 5 6.5H7ZM2 11.5C2 6.52944 6.02944 2.5 11 2.5V0.5C4.92487 0.5 0 5.42487 0 11.5H2Z" fill="#A3A3A3"/>
<circle cx="10.75" cy="16.25" r="1.25" fill="#A3A3A3"/>
<circle cx="11.25" cy="6.75" r="1.25" fill="black"/>
</svg>
